<svg width="22" height="22" viewBox="0 0 22 22" fill="none" xmlns="http://www.w3.org/2000/svg">
<path fill-rule="evenodd" clip-rule="evenodd" d="M11 12.9452L15.8611 17.8063C16.1191 18.0642 16.4689 18.2091 16.8337 18.2091C17.1985 18.2091 17.5483 18.0642 17.8063 17.8063C18.0642 17.5483 18.2091 17.1985 18.2091 16.8337C18.2091 16.4689 18.0642 16.119 17.8063 15.8611L12.9434 11L17.8054 6.13892C17.933 6.0112 18.0343 5.85958 18.1033 5.69273C18.1724 5.52588 18.2079 5.34705 18.2079 5.16647C18.2078 4.98589 18.1722 4.80708 18.1031 4.64026C18.0339 4.47344 17.9326 4.32187 17.8049 4.19421C17.6772 4.06655 17.5256 3.96529 17.3587 3.89623C17.1919 3.82716 17.013 3.79163 16.8324 3.79168C16.6519 3.79172 16.4731 3.82733 16.3062 3.89648C16.1394 3.96562 15.9879 4.06695 15.8602 4.19467L11 9.05575L6.13894 4.19467C6.01216 4.06328 5.86049 3.95846 5.69277 3.88632C5.52505 3.81418 5.34464 3.77617 5.16207 3.77449C4.9795 3.77282 4.79842 3.80753 4.62941 3.87658C4.46039 3.94564 4.30682 4.04767 4.17766 4.17671C4.0485 4.30575 3.94633 4.45922 3.87711 4.62817C3.8079 4.79712 3.77302 4.97816 3.77452 5.16073C3.77602 5.3433 3.81387 5.52375 3.88585 5.69154C3.95783 5.85933 4.06251 6.0111 4.19377 6.138L9.05669 11L4.19469 15.862C4.06343 15.9889 3.95875 16.1407 3.88677 16.3085C3.81478 16.4763 3.77694 16.6567 3.77544 16.8393C3.77394 17.0218 3.80881 17.2029 3.87803 17.3718C3.94725 17.5408 4.04942 17.6943 4.17858 17.8233C4.30774 17.9523 4.46131 18.0544 4.63032 18.1234C4.79934 18.1925 4.98041 18.2272 5.16298 18.2255C5.34555 18.2238 5.52596 18.1858 5.69368 18.1137C5.8614 18.0415 6.01308 17.9367 6.13986 17.8053L11 12.9452Z" fill="white"/>
</svg>
